<?xml version="1.0" standalone="no"?>
<!DOCTYPE svg PUBLIC "-//W3C//DTD SVG 20010904//EN"
 "http://www.w3.org/TR/2001/REC-SVG-20010904/DTD/svg10.dtd">
<svg version="1.0" xmlns="http://www.w3.org/2000/svg"
 width="225.000000pt" height="225.000000pt" viewBox="0 0 225.000000 225.000000"
 preserveAspectRatio="xMidYMid meet">

<g transform="translate(0.000000,225.000000) scale(0.100000,-0.100000)"
fill="#000000" stroke="none">
<path d="M952 2225 c-258 -58 -458 -216 -573 -450 -66 -135 -83 -210 -83 -365
1 -107 4 -138 28 -215 73 -241 229 -506 481 -820 123 -152 312 -365 324 -365
22 0 318 347 445 520 283 387 411 694 392 938 -28 341 -253 628 -576 734 -84
27 -111 31 -235 34 -97 3 -160 -1 -203 -11z m283 -270 c113 -21 197 -67 286
-155 220 -217 227 -551 17 -776 -113 -120 -244 -178 -408 -178 -163 0 -295 58
-406 177 -104 110 -154 235 -154 382 0 157 52 278 170 395 85 85 173 134 279
155 88 18 125 18 216 0z"/>
</g>
</svg>
